PathFileType	4	(X/Y/Z)	/Users/itak/Documents/Research/Walk-IL/dataset/trc/00440_00167.trc
DataRate	CameraRate	NumFrames	NumMarkers	Units	OrigDataRate	OrigDataStartFrame	OrigNumFrames
100.000000	100.000000	4	53	mm	100.000000	122	490
Frame#	Time	RPSI			LPSI			L3			STRN			T10			C7			CLAV			RBAK			LBAK			LSHO			LUPA			LAEL			LAOL			LWTS			LWPS			LFRA			LIFD			LHPS			LHTS			RSHO			RUPA			RAEL			RAOL			RWTS			RWPS			RFRA			RIFD			RHTS			RHPS			RBHD			LFHD			RFHD			LBHD			LHIP			RHIP			RASI			LASI			LKNE			LTHI			LANK			LTIP			LTOE			LMT1			LMT5			LHEE			RKNE			RTHI			RANK			RTIP			RTOE			RMT1			RMT5			RHEE			
		X1	Y1	Z1	X2	Y2	Z2	X3	Y3	Z3	X4	Y4	Z4	X5	Y5	Z5	X6	Y6	Z6	X7	Y7	Z7	X8	Y8	Z8	X9	Y9	Z9	X10	Y10	Z10	X11	Y11	Z11	X12	Y12	Z12	X13	Y13	Z13	X14	Y14	Z14	X15	Y15	Z15	X16	Y16	Z16	X17	Y17	Z17	X18	Y18	Z18	X19	Y19	Z19	X20	Y20	Z20	X21	Y21	Z21	X22	Y22	Z22	X23	Y23	Z23	X24	Y24	Z24	X25	Y25	Z25	X26	Y26	Z26	X27	Y27	Z27	X28	Y28	Z28	X29	Y29	Z29	X30	Y30	Z30	X31	Y31	Z31	X32	Y32	Z32	X33	Y33	Z33	X34	Y34	Z34	X35	Y35	Z35	X36	Y36	Z36	X37	Y37	Z37	X38	Y38	Z38	X39	Y39	Z39	X40	Y40	Z40	X41	Y41	Z41	X42	Y42	Z42	X43	Y43	Z43	X44	Y44	Z44	X45	Y45	Z45	X46	Y46	Z46	X47	Y47	Z47	X48	Y48	Z48	X49	Y49	Z49	X50	Y50	Z50	X51	Y51	Z51	X52	Y52	Z52	X53	Y53	Z53	

123	1.22	-1119.971923828125	951.8497924804688	-431.4399108886719	-1050.723999023438	956.4365234375	-556.7525634765625	-1070.26318359375	1058.081665039062	-484.8204650878906	-812.814208984375	1235.840698242188	-356.9314270019531	-1070.511962890625	1182.044799804688	-497.0669250488281	-1003.355407714844	1444.677856445312	-447.7583923339844	-837.411865234375	1352.550170898438	-372.8546142578125	-1109.72705078125	1329.566284179688	-398.2825317382812	-983.8004150390625	1401.607299804688	-552.0925903320312	-851.613037109375	1416.837158203125	-568.6390991210938	-812.4719848632812	1300.147583007812	-663.1177368164062	-784.7598876953125	1081.069458007812	-683.5387573242188	-888.8446044921875	1073.348510742188	-681.6727905273438	-763.1517333984375	873.7485961914062	-605.660888671875	-763.8109741210938	861.8494262695312	-678.84765625	-767.9331665039062	992.2323608398438	-680.8905639648438	-768.04150390625	703.2894287109375	-609.9349365234375	-762.5682983398438	781.5304565429688	-675.6697387695312	-750.475341796875	785.4959106445312	-605.121337890625	-1020.328247070312	1410.511474609375	-273.4700622558594	-1076.707153320312	1352.153076171875	-217.1439361572266	-1126.410400390625	1069.77783203125	-164.1453857421875	-1155.04150390625	1053.9677734375	-224.0657196044922	-1023.839172363281	866.2692260742188	-153.3002166748047	-1108.815551757812	852.6640625	-134.8768463134766	-1130.002075195312	1011.351684570312	-153.2938232421875	-1027.807373046875	707.9457397460938	-138.4459228515625	-1016.246520996094	768.7301025390625	-130.7385559082031	-1093.5673828125	765.95654296875	-125.8293380737305	-972.740966796875	1635.859985351562	-336.5880126953125	-776.71142578125	1650.974609375	-401.6007385253906	-843.7073974609375	1652.700927734375	-289.3167419433594	-895.2476806640625	1638.66650390625	-496.9126281738281	-885.4835205078125	844.0953979492188	-600.806396484375	-1063.694458007812	867.153076171875	-238.7156982421875	-953.2755737304688	910.685791015625	-270.5630187988281	-826.47412109375	879.8873901367188	-487.8948669433594	-953.8890380859375	425.2146606445312	-559.9202270507812	-900.648193359375	573.5107421875	-569.9579467773438	-1082.818969726562	33.9013786315918	-591.8248901367188	-982.9240112304688	274.4081115722656	-571.35107421875	-930.1875610351562	44.37011337280273	-414.3316040039062	-1006.579040527344	47.92742156982422	-430.2153015136719	-948.767822265625	47.33725357055664	-527.08837890625	-1155.704467773438	38.51659393310547	-578.4263916015625	-871.3426513671875	531.6660766601562	-162.3084259033203	-976.9172973632812	760.9444580078125	-189.4909362792969	-1059.826538085938	163.6710052490234	-279.54443359375	-929.725830078125	398.2537231445312	-182.0996856689453	-877.6063232421875	73.35665893554688	-206.8034820556641	-901.4985961914062	100.4281311035156	-268.8738708496094	-976.3601684570312	109.9733505249023	-193.1072998046875	-1084.930908203125	184.1066131591797	-352.8351440429688	
124	1.23	-1116.568969726562	951.415771484375	-428.9913330078125	-1047.672729492188	955.8624877929688	-554.4443969726562	-1066.882446289062	1057.790283203125	-482.6895141601562	-809.2461547851562	1235.231567382812	-354.6989440917969	-1066.978393554688	1181.73779296875	-494.9927673339844	-999.5654907226562	1444.222534179688	-445.4934997558594	-833.819091796875	1351.975219726562	-370.489501953125	-1106.067504882812	1329.181762695312	-396.2644653320312	-979.9381713867188	1401.255493164062	-549.8701782226562	-847.7444458007812	1416.38916015625	-566.2296142578125	-808.4142456054688	1299.75537109375	-660.615966796875	-780.5646362304688	1080.67041015625	-680.938232421875	-884.6240844726562	1072.909545898438	-679.4055786132812	-759.2861938476562	873.2612915039062	-603.1555786132812	-759.7431640625	861.4288330078125	-676.361083984375	-763.8104858398438	991.8116455078125	-678.2994384765625	-764.505615234375	702.9094848632812	-607.5709228515625	-758.44775390625	781.10546875	-673.2564697265625	-746.65576171875	784.9782104492188	-602.6742553710938	-1016.823852539062	1409.9384765625	-271.251953125	-1073.414672851562	1351.611938476562	-215.1594543457031	-1124.021362304688	1069.319091796875	-162.7406311035156	-1152.484741210938	1053.742065429688	-222.7960662841797	-1022.473754882812	865.2724609375	-151.8833923339844	-1107.632934570312	852.04638671875	-133.7738494873047	-1127.92724609375	1010.890930175781	-152.0170745849609	-1027.297729492188	706.95068359375	-137.3708343505859	-1015.042541503906	767.8446655273438	-129.4266815185547	-1092.820556640625	765.2462768554688	-124.8911514282227	-968.7755126953125	1635.289672851562	-334.0260620117188	-772.7518310546875	1650.271728515625	-398.90380859375	-839.8538208007812	1651.985473632812	-286.6747436523438	-891.2081298828125	1638.182250976562	-494.3262634277344	-882.7215576171875	843.4244995117188	-598.8579711914062	-1059.484497070312	867.4208984375	-236.0943450927734	-949.3610229492188	910.9009399414062	-268.6053466796875	-823.1281127929688	879.3316040039062	-486.171875	-951.4435424804688	424.6256103515625	-558.0202026367188	-897.9354248046875	572.904541015625	-568.0585327148438	-1082.787841796875	34.02812576293945	-591.7229614257812	-981.54736328125	273.8818054199219	-570.0653686523438	-930.103271484375	44.19392395019531	-414.2544860839844	-1006.512756347656	47.86870574951172	-430.0953063964844	-948.7433471679688	47.27241134643555	-527.062255859375	-1155.723266601562	38.7269287109375	-578.2545776367188	-864.286865234375	533.2601318359375	-159.1353149414062	-972.326416015625	761.7548217773438	-187.0967559814453	-1047.489990234375	160.7161102294922	-272.4775695800781	-920.601318359375	398.5434875488281	-177.4545593261719	-862.5934448242188	75.18808746337891	-201.2907409667969	-887.7406005859375	101.0850143432617	-263.3721923828125	-962.069580078125	108.8567886352539	-187.0132598876953	-1073.563354492188	180.6385040283203	-345.7315368652344	
125	1.24	-1113.079467773438	950.9578247070312	-426.5113220214844	-1044.468139648438	955.2092895507812	-552.0779418945312	-1063.371215820312	1057.44677734375	-480.4722595214844	-805.5755615234375	1234.598999023438	-352.3649291992188	-1063.350463867188	1181.390502929688	-492.8088989257812	-995.6876220703125	1443.719970703125	-443.1216735839844	-830.1227416992188	1351.37451171875	-368.0376281738281	-1102.300415039062	1328.75048828125	-394.1188354492188	-976.0075073242188	1400.857666015625	-547.5304565429688	-843.816162109375	1415.917114257812	-563.7247314453125	-804.3119506835938	1299.358642578125	-658.05322265625	-776.3388671875	1080.26513671875	-678.2699584960938	-880.3685302734375	1072.45556640625	-677.0048828125	-755.2998046875	872.7843627929688	-600.5572509765625	-755.6107177734375	861.0059204101562	-673.7728881835938	-759.636474609375	991.3890380859375	-675.6317138671875	-760.0579223632812	702.8334350585938	-605.21435546875	-754.2610473632812	780.658935546875	-670.7296142578125	-742.7499389648438	784.47216796875	-600.1358032226562	-1013.201904296875	1409.333129882812	-268.9202880859375	-1069.98291015625	1351.042236328125	-213.0487213134766	-1121.459716796875	1068.813110351562	-161.2359466552734	-1149.77294921875	1053.498901367188	-221.4194183349609	-1021.035339355469	864.1712646484375	-150.4544067382812	-1106.385375976562	851.3700561523438	-132.6299438476562	-1125.702270507812	1010.388977050781	-150.6534729003906	-1026.809326171875	705.8540649414062	-136.3405151367188	-1014.0244140625	766.7410278320312	-128.1870727539062	-1092.057983398438	764.4657592773438	-123.9566421508789	-964.7349853515625	1634.675170898438	-331.3550720214844	-768.7071533203125	1649.53271484375	-396.0777587890625	-835.9282836914062	1651.213012695312	-283.906494140625	-887.0681762695312	1637.678955078125	-491.6217651367188	-879.8106689453125	842.6981201171875	-596.7972412109375	-1055.240966796875	867.6341552734375	-233.4438629150391	-945.3609008789062	911.0775756835938	-266.551513671875	-819.6820678710938	878.7391967773438	-484.3289794921875	-948.8900146484375	423.9862365722656	-556.0121459960938	-895.0991821289062	572.2513427734375	-566.006591796875	-1082.7646484375	34.17564010620117	-591.6228637695312	-980.0771484375	273.3186950683594	-568.703857421875	-929.9717407226562	44.03543090820312	-414.1794738769531	-1006.438598632812	47.81697463989258	-429.9637145996094	-948.6972045898438	47.20083236694336	-527.0281372070312	-1155.74072265625	38.94713973999023	-578.0985717773438	-857.4727783203125	534.498046875	-156.1077270507812	-967.6395263671875	762.4635620117188	-184.6809387207031	-1034.4140625	156.7498779296875	-264.8573913574219	-911.3794555664062	398.3142700195312	-172.6934814453125	-846.6491088867188	76.44113159179688	-195.4864044189453	-873.2037963867188	101.1853637695312	-257.4876403808594	-946.8619384765625	106.9733200073242	-180.4600830078125	-1061.535522460938	176.0687408447266	-338.0648193359375	
126	1.25	-1109.498168945312	950.449951171875	-423.9838562011719	-1041.114990234375	954.46435546875	-549.6480712890625	-1059.737915039062	1057.036010742188	-478.1698608398438	-801.803955078125	1233.92822265625	-349.9278564453125	-1059.621337890625	1180.988891601562	-490.5159301757812	-991.718017578125	1443.160766601562	-440.6394348144531	-826.3204956054688	1350.733642578125	-365.4914855957031	-1098.426391601562	1328.260864257812	-391.8406677246094	-972.005859375	1400.402221679688	-545.066162109375	-839.818603515625	1415.407470703125	-561.1171875	-800.161376953125	1298.940551757812	-655.4268798828125	-772.0863647460938	1079.839965820312	-675.5462646484375	-876.086669921875	1071.981811523438	-674.4921264648438	-751.197021484375	872.31103515625	-597.8656616210938	-751.4054565429688	860.5676879882812	-671.0804443359375	-755.4078369140625	990.9525756835938	-672.8932495117188	-754.8325805664062	702.9608154296875	-602.82373046875	-750.0126953125	780.1817626953125	-668.0811157226562	-738.7423095703125	783.9749145507812	-597.4888916015625	-1009.4599609375	1408.682006835938	-266.4745483398438	-1066.411987304688	1350.427368164062	-210.8080902099609	-1118.726440429688	1068.2470703125	-159.6282043457031	-1146.9033203125	1053.22216796875	-219.9350891113281	-1019.515258789062	862.962158203125	-149.0052337646484	-1105.0556640625	850.6290283203125	-131.4415588378906	-1123.323486328125	1009.832824707031	-149.1992797851562	-1026.3212890625	704.653076171875	-135.3457489013672	-1013.260864257812	765.3880004882812	-127.0196990966797	-1091.266357421875	763.610107421875	-123.0097274780273	-960.6355590820312	1634.0068359375	-328.5836791992188	-764.5808715820312	1648.749877929688	-393.1243896484375	-831.9320678710938	1650.379516601562	-281.01513671875	-882.8309326171875	1637.13720703125	-488.8012390136719	-876.7457275390625	841.91455078125	-594.6299438476562	-1050.961059570312	867.77197265625	-230.7575378417969	-941.283935546875	911.2020874023438	-264.3981323242188	-816.15087890625	878.1046142578125	-482.3744506835938	-946.2431640625	423.3038024902344	-553.9163208007812	-892.14501953125	571.553466796875	-563.8043823242188	-1082.748291015625	34.34218597412109	-591.5262451171875	-978.512451171875	272.7264404296875	-567.2828369140625	-929.786376953125	43.89223098754883	-414.1092224121094	-1006.360534667969	47.77111053466797	-429.8262939453125	-948.630859375	47.12152099609375	-526.99169921875	-1155.755126953125	39.17994689941406	-577.9620971679688	-850.9278564453125	535.3512573242188	-153.2351989746094	-962.77880859375	763.0694580078125	-182.2015686035156	-1020.594543457031	151.8751983642578	-256.7105712890625	-902.0950317382812	397.58642578125	-167.8473358154297	-829.8912353515625	77.15747833251953	-189.2646636962891	-857.9354858398438	100.7599105834961	-251.1219177246094	-930.8187255859375	104.4584121704102	-173.3935852050781	-1048.816040039062	170.4610443115234	-329.8572692871094	
